pu03
version=1
nRows=16
nColumns=43
inDegrees=yes
endheader
time	pelvis_tilt	pelvis_list	pelvis_rotation	pelvis_tx	pelvis_ty	pelvis_tz	hip_flexion_r	hip_adduction_r	hip_rotation_r	knee_angle_r	ankle_angle_r	subtalar_angle_r	mtp_angle_r	hip_flexion_l	hip_adduction_l	hip_rotation_l	knee_angle_l	ankle_angle_l	subtalar_angle_l	mtp_angle_l	lumbar_extension	lumbar_bending	lumbar_rotation	neck_flexion	neck_lateral_bending	neck_rotation	arm_flex_r	arm_add_r	arm_rot_r	elbow_flex_r	pro_sup_r	wrist_flex_r	wrist_dev_r	hand_finger_flex_r	arm_flex_l	arm_add_l	arm_rot_l	elbow_flex_l	pro_sup_l	wrist_flex_l	wrist_dev_l	hand_finger_flex_l
      0.95500000	      2.87239679	      8.16982477	    -88.86825298	      0.00456129	      0.98471914	      1.22700675	      5.06577270	     -6.45095484	     -6.29902202	    -20.21503207	     18.68864025	     -7.80455256	     -6.30034726	      7.10777497	     -0.39134689	    -10.81810963	    -20.62968350	     23.80872558	     -0.25811099	    -10.16467699	     34.26266226	     -8.04608531	     -5.51489104	    -17.18402668	      6.65119948	     12.35554319	   -267.81043257	    -29.56177550	   -363.05706143	     89.78183620	    138.56645474	     17.99910648	      5.08166046	     79.23075699	    112.74723484	    -30.91582001	     17.12110783	     88.65211709	    138.81659648	     31.61295845	     31.03712282	     89.88268706
      0.95750000	      2.86591497	      8.00239208	    -88.77173625	      0.00464611	      0.98667440	      1.22510203	      5.09243247	     -6.45424276	     -6.29465025	    -20.33589060	     18.71489858	     -7.81435986	     -6.30303021	      7.10475969	     -0.42070623	    -10.81001798	    -20.71493024	     23.79816844	     -0.25954330	    -10.15157741	     34.15398786	     -8.08106029	     -5.48044109	    -17.34411269	      6.63179348	     12.40100415	   -268.41756549	    -29.51678322	   -363.30000576	     90.07865653	    138.56816792	     17.98842612	      5.05310237	     79.19685531	    111.93758143	    -30.84346568	     16.64315228	     89.03562323	    138.88209354	     31.58463590	     30.93951773	     89.97379209
      0.96000000	      2.84390407	      7.84120666	    -88.70331414	      0.00475587	      0.98864567	      1.22324769	      5.11995457	     -6.45450692	     -6.31419396	    -20.43741162	     18.70192488	     -7.80723337	     -6.30989045	      7.08802003	     -0.46266388	    -10.79789388	    -20.79297672	     23.77587323	     -0.27179008	    -10.14014187	     34.06064577	     -8.08293000	     -5.42268856	    -17.53263905	      6.61105924	     12.40205462	   -269.03089001	    -29.51650544	   -363.50423811	     90.38264974	    138.63735563	     17.95407336	      5.02845551	     79.15391546	    111.09487472	    -30.72366440	     16.11068782	     89.42676732	    139.01538316	     31.52614623	     30.84444045	     90.04634520
      0.96250000	      2.79282105	      7.67350409	    -88.62288174	      0.00511074	      0.99061644	      1.22147084	      5.11548747	     -6.43963833	     -6.37228991	    -20.49695066	     18.58805034	     -7.74775515	     -6.33574384	      7.06366488	     -0.50953703	    -10.76470489	    -20.84239432	     23.69136375	     -0.30950628	    -10.12048133	     33.99432088	     -8.01138688	     -5.28491822	    -17.85979104	      6.62630567	     12.28970918	   -269.53865429	    -29.62847393	   -363.53685210	     90.63446238	    138.96601694	     17.88878105	      4.97012464	     79.02962131	    110.03094749	    -30.42784373	     15.26989087	     89.73262786	    139.50299596	     31.33758478	     30.59292892	     90.11550351
      0.96500000	      2.78274314	      7.52769946	    -88.55340506	      0.00500781	      0.99256581	      1.21952377	      5.16965505	     -6.42960949	     -6.38918320	    -20.61048713	     18.58487568	     -7.73361030	     -6.33878024	      7.08043251	     -0.55644834	    -10.78471647	    -20.90881263	     23.72544188	     -0.35244238	    -10.10850082	     33.88745471	     -8.06271654	     -5.29124817	    -17.90930366	      6.54601215	     12.25077566	   -270.19295720	    -29.54973830	   -363.84328417	     90.97459573	    139.01054782	     17.84639825	      4.95191731	     79.00331589	    109.40928504	    -30.46046300	     15.09858120	     90.11797509	    139.63381394	     31.28549852	     30.49109313	     90.15036583
      0.96750000	      2.77256605	      7.36288513	    -88.47300775	      0.00509506	      0.99458402	      1.21760264	      5.20629856	     -6.43379415	     -6.41733439	    -20.74009283	     18.55934419	     -7.70928427	     -6.34470981	      7.09076315	     -0.58562924	    -10.78937227	    -21.00997881	     23.73588913	     -0.38822725	    -10.09861546	     33.77637933	     -8.09039204	     -5.26936527	    -18.07831368	      6.52984990	     12.18374951	   -270.81551805	    -29.51532814	   -364.07801875	     91.28501308	    139.12240444	     17.78542118	      4.92743133	     78.96356180	    108.61381275	    -30.39727995	     14.65647207	     90.54858862	    139.82944328	     31.19330651	     30.40291862	     90.18064748
      0.97000000	      2.74848247	      7.20817481	    -88.40424905	      0.00527772	      0.99660148	      1.21573329	      5.24639872	     -6.43658452	     -6.46105422	    -20.84648479	     18.51150665	     -7.66969285	     -6.35370573	      7.09317338	     -0.61137105	    -10.78172778	    -21.09460367	     23.73355062	     -0.42332402	    -10.09076494	     33.68998360	     -8.08389953	     -5.22851705	    -18.28248846	      6.50814525	     12.09600490	   -271.42161060	    -29.51571566	   -364.25883448	     91.58593036	    139.28340810	     17.71018941	      4.89455718	     78.91333750	    107.77210883	    -30.27499928	     14.14788468	     90.95763460	    140.08495844	     31.07047196	     30.30644879	     90.19577528
      0.97250000	      2.72582052	      7.06030422	    -88.33633538	      0.00542874	      0.99860347	      1.21385231	      5.28790064	     -6.44155790	     -6.50083474	    -20.95171652	     18.45428994	     -7.62314155	     -6.36378769	      7.11229306	     -0.64618529	    -10.77959988	    -21.17032981	     23.72628612	     -0.45874309	    -10.08522983	     33.60889383	     -8.07759027	     -5.18400312	    -18.47176353	      6.48230031	     11.99801631	   -272.01542794	    -29.51633943	   -364.43318149	     91.87776023	    139.45235576	     17.63020475	      4.85835202	     78.86156292	    106.94906132	    -30.17519318	     13.68798978	     91.33445271	    140.35731451	     30.93989194	     30.20405352	     90.19829637
      0.97500000	      2.70152739	      6.91624239	    -88.27579625	      0.00562103	      1.00064273	      1.21194602	      5.34155762	     -6.44517695	     -6.53878535	    -21.05666544	     18.38330331	     -7.56863783	     -6.37633632	      7.13054016	     -0.66948754	    -10.77946898	    -21.24968965	     23.70491425	     -0.49074084	    -10.08220349	     33.53765067	     -8.06242308	     -5.13718455	    -18.67488792	      6.45645638	     11.88307587	   -272.61888585	    -29.51653535	   -364.60019190	     92.17601392	    139.64763235	     17.53939520	      4.81344746	     78.80113014	    106.11833715	    -30.05439667	     13.20742990	     91.73152861	    140.67425484	     30.78319174	     30.08116131	     90.19046434
      0.97750000	      2.61164357	      6.84838404	    -88.23599920	      0.00579570	      1.00257553	      1.21009552	      5.45310726	     -6.38641291	     -6.64783438	    -21.08243715	     18.10957086	     -7.31030172	     -6.45820901	      7.20076433	     -0.75655507	    -10.76114802	    -21.23951557	     23.53785937	     -0.66271369	    -10.07516093	     33.58787443	     -7.95004673	     -5.00379417	    -18.95199289	      6.23518613	     11.30736548	   -273.19819436	    -29.61963119	   -364.70447333	     92.55414396	    140.83743199	     17.30867490	      4.43090045	     78.36274050	    105.09213014	    -29.80826909	     12.67669031	     92.05806894	    142.83326672	     29.83714634	     28.73888109	     90.04216788
      0.98000000	      2.64961667	      6.67629981	    -88.16032667	      0.00585712	      1.00463798	      1.20808592	      5.49985507	     -6.43629742	     -6.62166631	    -21.24849674	     18.16410143	     -7.34008556	     -6.45658934	      7.22276324	     -0.73799604	    -10.77788803	    -21.37476342	     23.57028227	     -0.66265767	    -10.06854159	     33.44320969	     -8.02078905	     -5.01647692	    -19.03239425	      6.29215874	     11.34056056	   -273.79309977	    -29.52365062	   -364.93862976	     92.83618214	    140.77026640	     17.32517998	      4.39754274	     78.35206528	    104.42385604	    -29.88540744	     12.40243474	     92.45002097	    142.85973438	     29.82782742	     28.64173052	     90.12988705
      0.98250000	      2.65877478	      6.52899656	    -88.11317696	      0.00593052	      1.00672511	      1.20615140	      5.56228656	     -6.46470895	     -6.61801379	    -21.36564576	     18.15371993	     -7.34430885	     -6.46250567	      7.23132270	     -0.73960979	    -10.77835556	    -21.44119819	     23.56181465	     -0.64154617	    -10.06702433	     33.35388830	     -8.04521811	     -4.96894381	    -19.17779985	      6.29028238	     11.35923584	   -274.41606245	    -29.50183242	   -365.13675235	     93.12278477	    140.76375614	     17.30781899	      4.36545542	     78.32810482	    103.67208357	    -29.82572841	     12.02622881	     92.83816270	    142.93353366	     29.78424823	     28.55009661	     90.20345333
      0.98500000	      2.65898788	      6.39175990	    -88.06368616	      0.00602333	      1.00881900	      1.20421441	      5.62853124	     -6.48479423	     -6.61452921	    -21.47367541	     18.09363482	     -7.33009646	     -6.47349879	      7.24504303	     -0.75002416	    -10.79054451	    -21.49219237	     23.52910566	     -0.61153934	    -10.06855176	     33.27820679	     -8.05594190	     -4.90570391	    -19.34104637	      6.27703936	     11.34608340	   -275.03103578	    -29.50308744	   -365.32552053	     93.41603681	    140.80341058	     17.26076571	      4.33574820	     78.29518719	    102.89700481	    -29.74707367	     11.63650974	     93.19504173	    143.04719973	     29.71489885	     28.46159936	     90.25661323
      0.98750000	      2.66034226	      6.26975694	    -88.01180355	      0.00608480	      1.01072794	      1.20246186	      5.67746883	     -6.49786988	     -6.60548311	    -21.52793672	     18.08288885	     -7.32744480	     -6.47517111	      7.24899173	     -0.75503248	    -10.80064783	    -21.53086686	     23.53203447	     -0.60858158	    -10.06760454	     33.23859540	     -8.05950573	     -4.88992201	    -19.32262996	      6.27744265	     11.33975545	   -275.52445262	    -29.46705381	   -365.27754342	     93.49877181	    140.81598297	     17.25688257	      4.32423939	     78.28891842	    102.36846769	    -29.80574238	     11.63532083	     93.19421491	    143.07639362	     29.71689191	     28.44421663	     90.26585811
      0.99000000	      2.65780184	      6.11917262	    -87.96741348	      0.00614500	      1.01304225	      1.20032565	      5.77045541	     -6.52033611	     -6.60031004	    -21.67277683	     17.95483924	     -7.29230241	     -6.49235201	      7.26924407	     -0.77367121	    -10.83138074	    -21.58202453	     23.46777485	     -0.55407418	    -10.07197606	     33.11707990	     -8.08491097	     -4.79963700	    -19.61454407	      6.22503985	     11.28410370	   -276.27914893	    -29.49448980	   -365.70745708	     93.99199446	    140.91095313	     17.13034568	      4.29699408	     78.24434425	    101.44835599	    -29.63436124	     10.97121861	     93.90681315	    143.23950768	     29.56926709	     28.35692385	     90.30771478
      0.99250000	      2.66067933	      5.99486631	    -87.90185095	      0.00627036	      1.01499583	      1.19857720	      5.81465919	     -6.53255542	     -6.58812490	    -21.72495414	     17.93622887	     -7.28707189	     -6.49464019	      7.27677416	     -0.77734941	    -10.84633932	    -21.61484546	     23.46568833	     -0.54818933	    -10.07145949	     33.07772705	     -8.08310096	     -4.77341102	    -19.59436234	      6.22868306	     11.27062325	   -276.74944530	    -29.45812688	   -365.66226403	     94.08334242	    140.93623620	     17.11764851	      4.28431996	     78.23584288	    100.87521339	    -29.69351807	     10.98112988	     93.88236257	    143.27960485	     29.56421597	     28.33949185	     90.30918377
